<svg width="180" height="24" fill="none" xmlns="http://www.w3.org/2000/svg"><path d="M119.48 8.004h-2.403v14.557h2.403V8.004zM37.642 22.561l2.655-14.557h3.508l-2.656 14.557h-3.507zM17.549 8.004h3.407l1.103 10.524 4.459-10.524H29.9l1.178 10.624 4.31-10.624h3.382l-6.164 14.557h-3.858L27.496 12.54l-4.26 10.021h-3.733L17.55 8.004z" fill="#2E4369"/><path d="M2.574 8.004l2.27 3.86-4.043 3.865h6.877l.718-1.684h-3.48l2.177-2.177-1.269-2.18h5.905L6.283 22.562h2.045l6.164-14.557H2.574z" fill="#00B9FF"/><path d="M78.501 9.87c-2.685 0-4.946 2.43-4.946 5.455 0 2.968 2.261 5.399 4.946 5.399 2.714 0 4.862-2.431 4.862-5.399 0-3.024-2.148-5.455-4.862-5.455zm0 13.059c-2.148 0-4.013-1.216-5.03-2.714v2.346h-2.319V1.531h2.403v8.678c1.046-1.413 2.855-2.572 4.946-2.572 4.184 0 7.265 3.448 7.265 7.66s-3.081 7.632-7.265 7.632zM100.037 22.561h-2.318v-1.583c-.989 1.188-2.459 1.922-4.24 1.922-3.56 0-5.596-2.544-5.596-6.133V8.004h2.374v8.876c0 2.318 1.272 3.844 3.59 3.844 2.148 0 3.788-1.611 3.788-3.788V8.004h2.402v14.557zM108.711 22.929c-3.534 0-6.106-1.894-6.502-4.975h2.431c.311 1.696 1.979 2.742 4.071 2.742 2.261 0 3.646-1.103 3.646-2.375 0-1.017-.396-1.78-3.957-2.261-3.534-.509-5.682-1.357-5.682-4.099 0-2.091 1.809-4.324 5.71-4.324 3.364 0 5.625 1.696 5.936 4.55h-2.431c-.339-1.554-1.724-2.346-3.505-2.346-1.922 0-3.307.905-3.307 2.036 0 1.045.82 1.413 3.674 1.865 3.223.509 5.88 1.13 5.88 4.438 0 2.911-2.488 4.749-5.964 4.749zM134.659 22.561h-2.374v-8.847c0-2.233-1.244-3.873-3.562-3.873-2.205 0-3.816 1.64-3.816 3.816v8.904h-2.402V8.004h2.317v1.583c.99-1.215 2.488-1.95 4.24-1.95 3.562 0 5.597 2.544 5.597 6.162v8.762zM148.538 13.77c-.594-2.374-2.573-3.957-4.693-3.957-2.007 0-4.127 1.47-4.748 3.957h9.441zm2.317 4.269c-1.017 3.109-3.505 4.861-6.868 4.861-4.184 0-7.463-3.335-7.463-7.603 0-4.212 3.279-7.66 7.321-7.66 3.76 0 7.378 3.109 7.35 8.282h-12.24c.311 3.024 2.629 4.805 5.032 4.805 2.063 0 3.533-.99 4.324-2.685h2.544zM159.249 22.929c-3.533 0-6.106-1.894-6.501-4.975h2.431c.31 1.696 1.978 2.742 4.07 2.742 2.261 0 3.646-1.103 3.646-2.375 0-1.017-.396-1.78-3.957-2.261-3.533-.509-5.682-1.357-5.682-4.099 0-2.091 1.809-4.324 5.71-4.324 3.364 0 5.625 1.696 5.936 4.55h-2.431c-.339-1.554-1.724-2.346-3.505-2.346-1.922 0-3.307.905-3.307 2.036 0 1.045.82 1.413 3.675 1.865 3.222.509 5.879 1.13 5.879 4.438 0 2.911-2.487 4.749-5.964 4.749zM172.901 22.929c-3.533 0-6.105-1.894-6.501-4.975h2.431c.311 1.696 1.979 2.742 4.07 2.742 2.261 0 3.646-1.103 3.646-2.375 0-1.017-.395-1.78-3.957-2.261-3.533-.509-5.681-1.357-5.681-4.099 0-2.091 1.809-4.324 5.71-4.324 3.363 0 5.624 1.696 5.935 4.55h-2.43c-.34-1.554-1.725-2.346-3.505-2.346-1.923 0-3.308.905-3.308 2.036 0 1.045.82 1.413 3.675 1.865 3.222.509 5.879 1.13 5.879 4.438-.001 2.911-2.487 4.749-5.964 4.749zM57.207 13.867c.352-1.804 2.105-3.233 4.21-3.233 1.83 0 3.207 1.329 3.207 3.233h-7.417zm10.9.45c0-3.909-2.73-6.665-6.54-6.665-4.86 0-8.118 3.533-8.118 8.57 0 3.932 2.756 6.664 6.64 6.664 3.533 0 6.163-1.703 7.24-4.435h-3.933c-.526.852-1.628 1.378-2.982 1.378-2.079 0-3.382-1.378-3.508-3.332H67.88c.152-.725.227-1.377.227-2.18zM42.903 22.536l.701-3.758c2.156.425 2.48-.777 3.032-3.709l.275-1.453c.778-4.084 2.355-6.114 6.865-5.562l-.701 3.758c-2.156-.426-2.53 1.202-3.006 3.732l-.276 1.453c-.776 4.135-2.405 6.09-6.89 5.539z" fill="#2E4369"/></svg>